<?xml version="1.0" encoding="UTF-8"?>
<svg id="Calque_2" data-name="Calque 2" xmlns="http://www.w3.org/2000/svg" viewBox="0 0 1000 1000">
  <defs>
    <style>
      .cls-1 {
        fill: #dd2d4a;
      }
    </style>
  </defs>
  <path class="cls-1" d="M735.8,477.58c0,91.93-51.36,171.88-126.97,212.7-9.81,5.3-20.05,9.94-30.64,13.87-7.71-16.68-13.58-34.38-17.35-52.85-3.18-15.65-4.85-31.86-4.85-48.45,0-38.08,8.81-74.1,24.51-106.13,4.37-8.92-5.41-18.18-14.08-13.34-25.24,14.1-47.68,32.6-66.29,54.47-.04-.18-.09-.36-.11-.54-.04.18-.09.36-.12.54-18.61-21.86-41.05-40.37-66.29-54.47-8.67-4.84-18.45,4.42-14.08,13.34,15.7,32.03,24.51,68.06,24.51,106.13,0,16.59-1.68,32.79-4.85,48.45-3.78,18.47-9.64,36.17-17.35,52.85-10.59-3.93-20.83-8.56-30.64-13.87-75.6-40.82-126.97-120.77-126.97-212.7,0-6.53.26-12.98.76-19.37,2.31-29.07,9.75-56.68,21.44-81.92,1.38-2.99,2.81-5.94,4.31-8.86,7.23-14.07,15.79-27.33,25.53-39.63.17-.22.35-.44.52-.66,32.12-40.29,93-41.88,127.38-3.5,7.9,8.82,15.16,18.22,21.71,28.14,5.43,8.22,10.37,16.79,14.79,25.68,7.96,16.03,30.72,16.03,38.68,0,4.41-8.88,9.36-17.46,14.79-25.68,6.55-9.92,13.81-19.32,21.71-28.14,34.38-38.38,95.26-36.8,127.38,3.5.17.22.35.44.52.66,9.74,12.3,18.3,25.57,25.53,39.63,1.5,2.93,2.94,5.88,4.31,8.86,11.69,25.24,19.13,52.85,21.44,81.92.5,6.39.76,12.84.76,19.37Z"/>
</svg>